<?xml version="1.0" standalone="no"?>
<!DOCTYPE svg PUBLIC "-//W3C//DTD SVG 20010904//EN"
 "http://www.w3.org/TR/2001/REC-SVG-20010904/DTD/svg10.dtd">
<svg version="1.0" xmlns="http://www.w3.org/2000/svg"
 width="512.000000pt" height="512.000000pt" viewBox="0 0 512.000000 512.000000"
 preserveAspectRatio="xMidYMid meet">

<g transform="translate(0.000000,512.000000) scale(0.100000,-0.100000)"
fill="#000000" stroke="none">
<path d="M2025 4855 l-25 -24 0 -2271 0 -2271 25 -24 24 -25 511 0 511 0 24
25 25 24 0 2271 0 2271 -25 24 -24 25 -511 0 -511 0 -24 -25z"/>
<path d="M3465 3335 l-25 -24 0 -1511 0 -1511 25 -24 24 -25 511 0 511 0 24
25 25 24 0 1511 0 1511 -25 24 -24 25 -511 0 -511 0 -24 -25z m935 -1535 l0
-1400 -400 0 -400 0 0 1400 0 1400 400 0 400 0 0 -1400z"/>
<path d="M585 2615 l-25 -24 0 -1151 0 -1151 25 -24 24 -25 511 0 511 0 24 25
25 24 0 1151 0 1151 -25 24 -24 25 -511 0 -511 0 -24 -25z m935 -1175 l0
-1040 -400 0 -400 0 0 1040 0 1040 400 0 400 0 0 -1040z"/>
</g>
</svg>
