<svg xmlns="http://www.w3.org/2000/svg" version="1.1" xmlns:xlink="http://www.w3.org/1999/xlink" xmlns:svgjs="http://svgjs.dev/svgjs" width="1500" height="560" viewBox="0 0 1500 560"><g transform="matrix(1,0,0,1,-0.9090909090909918,-0.22126947601509528)"><svg viewBox="0 0 396 148" data-background-color="#ffffff" preserveAspectRatio="xMidYMid meet" height="560" width="1500" xmlns="http://www.w3.org/2000/svg" xmlns:xlink="http://www.w3.org/1999/xlink"><g id="tight-bounds" transform="matrix(1,0,0,1,0.2400000000000091,0.058478361518268684)"><svg viewBox="0 0 395.52 147.88304327696346" height="147.88304327696346" width="395.52"><g><svg viewBox="0 0 395.52 147.88304327696346" height="147.88304327696346" width="395.52"><g><svg viewBox="0 0 395.52 147.88304327696346" height="147.88304327696346" width="395.52"><g id="textblocktransform"><svg viewBox="0 0 395.52 147.88304327696346" height="147.88304327696346" width="395.52" id="textblock"><g><svg viewBox="0 0 395.52 102.07098775062761" height="102.07098775062761" width="395.52"><rect width="395.52" height="102.07098775062761" x="0" y="0" opacity="1" fill="#333333" data-fill-palette-color="tertiary"></rect><g transform="matrix(1,0,0,1,23.461705032,23.461705031999998)"><svg width="348.596589936" viewBox="1.9 -38.28 245.04999999999998 38.77" height="55.14757768662761" data-palette-color="#99775c"><path d="M4.49-7.39Q3.27-9.47 2.59-12.19 1.9-14.92 1.9-17.76 1.9-20.61 2.36-22.9 2.81-25.2 3.74-27.29L3.74-27.29Q5.71-31.76 9.77-34.44 13.82-37.11 19.73-37.11 25.63-37.11 29.57-34.18 33.5-31.25 33.5-27.03L33.5-27.03Q33.5-24.15 31.2-23.14L31.2-23.14Q30.49-22.83 29.69-22.83L29.69-22.83Q28.13-22.83 27.15-23.8 26.17-24.78 26.17-26.07L26.17-26.07Q26.17-28.66 28.25-29.64L28.25-29.64Q27.27-31.69 24.93-32.87 22.58-34.06 20.12-34.06L20.12-34.06Q14.92-34.06 11.63-30.18 8.35-26.29 8.35-18.54 8.35-10.79 11.77-6.74 15.19-2.69 20.07-2.69L20.07-2.69Q24.05-2.69 26.23-4.69 28.42-6.69 28.42-9.09 28.42-11.5 27.32-12.12 26.22-12.74 22.29-12.74L22.29-12.74 22.29-15.99 33.47-15.99 33.47 0 30.2 0 29.3-2.93Q27.2-0.73 22.8 0.15L22.8 0.15Q21.19 0.49 19.14 0.49 17.09 0.49 14.98 0.04 12.87-0.42 10.94-1.37 9.01-2.32 7.36-3.81 5.71-5.3 4.49-7.39ZM39.74 0L39.74-2.69Q41.84-2.69 42.38-3.11 42.92-3.54 43.03-4.03 43.14-4.52 43.14-5.25L43.14-5.25 43.14-18.7Q43.14-20.46 42.83-21 42.53-21.53 41.18-21.53L41.18-21.53 39.69-21.53 39.69-24.22Q42.01-24.22 43.3-24.57 44.58-24.93 45.13-25.09 45.68-25.24 46.31-25.24L46.31-25.24Q47.56-25.24 47.98-24.51 48.41-23.78 48.41-22.12L48.41-22.12 48.41-21.63Q50.51-24.1 53.17-24.95L53.17-24.95Q54.12-25.24 55.08-25.24L55.08-25.24Q56.91-25.24 57.92-24.19 58.93-23.14 58.93-21.61 58.93-20.07 57.96-19.09 56.98-18.12 55.59-18.12L55.59-18.12Q54.22-18.12 53.33-19.09 52.44-20.07 52.54-21.53L52.54-21.53Q51.54-21.39 50.4-20.62 49.27-19.85 48.41-18.53L48.41-18.53 48.41-5.47Q48.41-4.54 48.57-3.99 48.73-3.44 49.42-3.06 50.12-2.69 53.61-2.69L53.61-2.69 53.61 0 39.74 0ZM82.95-16.8L82.95-5.83Q82.95-2.93 84.1-2.93L84.1-2.93Q85.2-2.93 85.71-3.67 86.23-4.42 86.23-6.37L86.23-6.37 88.79-6.37Q88.81-6.05 88.81-5.37L88.81-5.37Q88.81-3.17 87.71-1.56L87.71-1.56Q86.37 0.49 83.44 0.49L83.44 0.49Q81.54 0.49 80.2-0.59 78.85-1.66 78.34-3.42L78.34-3.42Q74.8 0.49 69.38 0.49L69.38 0.49Q66.4 0.49 64.19-1.26 61.98-3 61.98-6.13L61.98-6.13Q61.98-11.55 69.99-14.14L69.99-14.14Q75.07-15.75 76.07-16.37 77.07-16.99 77.38-17.64 77.68-18.29 77.68-19.09L77.68-19.09Q77.68-20.53 76.26-21.5 74.85-22.46 72.58-22.46 70.31-22.46 68.57-21.24L68.57-21.24Q69.79-20.34 69.79-18.92 69.79-17.5 68.85-16.65 67.91-15.8 66.58-15.8 65.25-15.8 64.39-16.6 63.52-17.41 63.52-18.85L63.52-18.85Q63.52-21.7 66.4-23.47 69.28-25.24 73.41-25.24L73.41-25.24Q80.78-25.24 82.42-20.46L82.42-20.46Q82.95-18.87 82.95-16.8L82.95-16.8ZM72.19-11.91Q70.04-10.99 68.96-9.53 67.89-8.08 67.89-6.37 67.89-4.66 68.82-3.78 69.75-2.91 71.14-2.91L71.14-2.91Q73.97-2.91 75.83-4.9 77.68-6.88 77.68-10.45L77.68-10.45 77.68-14.21Q76.12-13.4 74.37-12.74 72.63-12.08 72.19-11.91L72.19-11.91ZM99.75 0L90.52-19.46Q89.79-21.04 89.21-21.56 88.64-22.07 86.78-22.07L86.78-22.07 86.78-24.76 99.85-24.76 99.85-22.07Q97.14-22.07 96.53-21.52 95.92-20.97 96.53-19.46L96.53-19.46 102.04-6.08 107.93-19.46Q108.54-20.85 107.7-21.46 106.85-22.07 104-22.07L104-22.07 104-24.76 115.13-24.76 115.13-22.07Q113.59-22.07 112.79-21.45 111.98-20.83 111.37-19.46L111.37-19.46 102.41 0 99.75 0ZM122.4-29.76L122.4-29.76Q120.82-29.76 119.7-30.82 118.59-31.88 118.59-33.42L118.59-33.42Q118.59-34.99 119.72-36.07 120.84-37.16 122.4-37.16L122.4-37.16Q123.96-37.16 125.09-36.07 126.21-34.99 126.21-33.42L126.21-33.42Q126.21-31.88 125.1-30.82 123.99-29.76 122.4-29.76ZM116.18 0L116.18-2.69Q118.45-2.69 119.02-3.11 119.59-3.54 119.72-4.03 119.84-4.52 119.84-5.25L119.84-5.25 119.84-18.7Q119.84-20.46 119.53-21 119.23-21.53 117.89-21.53L117.89-21.53 116.13-21.53 116.13-24.22Q118.52-24.22 119.89-24.57 121.25-24.93 121.82-25.09 122.38-25.24 123.04-25.24L123.04-25.24Q124.31-25.24 124.71-24.5 125.11-23.75 125.11-22.12L125.11-22.12 125.11-5.25Q125.11-3.71 125.6-3.32L125.6-3.32Q126.43-2.69 128.75-2.69L128.75-2.69 128.75 0 116.18 0ZM139.49 0L139.49-2.69Q142.25-2.69 143.15-3.14 144.05-3.59 144.32-4.1 144.59-4.61 144.59-5.35L144.59-5.35 144.59-33.79 139.59-33.79Q135.56-33.79 134.97-29.52L134.97-29.52 134.26-24.56 130.72-24.58 131.8-36.62 162.88-36.62 163.95-24.58 160.41-24.56 159.7-29.52Q159.44-31.49 158.65-32.32L158.65-32.32Q157.24-33.79 155.09-33.79L155.09-33.79 150.09-33.79 150.09-5.35Q150.09-3.81 151.1-3.25 152.11-2.69 155.19-2.69L155.19-2.69 155.19 0 139.49 0ZM189.12-11.25L189.12-11.25 172.18-11.25Q172.18-7.06 174.17-4.76 176.16-2.47 179.09-2.47L179.09-2.47Q183.02-2.47 184.73-5.71L184.73-5.71 188.36-5.74Q187.8-3.13 185.15-1.32 182.5 0.49 178.01 0.49 173.52 0.49 170.25-2.29L170.25-2.29Q166.34-5.64 166.34-11.72 166.34-17.8 169.46-21.52 172.57-25.24 178.38-25.24L178.38-25.24Q186.02-25.24 188.27-19.09L188.27-19.09Q189.17-16.63 189.17-14.43 189.17-12.23 189.12-11.25ZM183.48-14.92L183.48-14.92Q183.48-22.39 178.4-22.39L178.4-22.39Q175.55-22.39 173.95-20.17 172.35-17.94 172.2-14.01L172.2-14.01 183.46-14.01Q183.48-14.48 183.48-14.92ZM210.09-20.73L210.09-20.73Q208.67-22.44 206.13-22.44L206.13-22.44Q201.37-22.44 199.93-17.02L199.93-17.02Q199.45-15.11 199.45-12.45L199.45-12.45Q199.45-7.5 201.35-4.98 203.25-2.47 206.11-2.47L206.11-2.47Q208.21-2.47 209.67-3.69 211.14-4.91 211.7-7.18L211.7-7.18 215.05-7.18Q215.05-4.15 212.37-1.83 209.7 0.49 205.12 0.49 200.54 0.49 197.35-2.37L197.35-2.37Q193.59-5.71 193.59-12.21L193.59-12.21Q193.59-17.5 196.72-21.37 199.86-25.24 205.94-25.24L205.94-25.24Q209.92-25.24 212.58-23.32 215.24-21.39 215.24-18.33L215.24-18.33Q215.24-16.85 214.28-15.83 213.31-14.82 211.82-14.82L211.82-14.82Q209.7-14.82 208.89-16.8L208.89-16.8Q208.65-17.38 208.65-18.09L208.65-18.09Q208.65-19.78 210.09-20.73ZM234.23-21.58L234.23-21.58Q230.23-21.58 227.74-19.09L227.74-19.09 227.74-5.25Q227.74-3.74 228.23-3.34L228.23-3.34Q229.08-2.69 231.45-2.69L231.45-2.69 231.45 0 219.05 0 219.05-2.69Q221.15-2.69 221.68-3.11 222.22-3.54 222.34-4.03 222.47-4.52 222.47-5.25L222.47-5.25 222.47-31.74Q222.47-33.5 222.16-34.03 221.86-34.57 220.49-34.57L220.49-34.57 219-34.57 219-37.26Q221.29-37.26 222.6-37.61 223.91-37.96 224.46-38.12 225-38.28 225.64-38.28L225.64-38.28Q226.93-38.28 227.34-37.54 227.74-36.79 227.74-35.16L227.74-35.16 227.74-21.97Q230.25-24.17 233.79-24.98L233.79-24.98Q234.94-25.24 236.04-25.24L236.04-25.24Q243.95-25.24 243.95-14.75L243.95-14.75 243.95-5.3Q243.95-3.69 244.41-3.19 244.88-2.69 246.95-2.69L246.95-2.69 246.95 0 235.4 0 235.4-2.69Q237.63-2.69 238.08-3.14 238.53-3.59 238.6-4.08 238.68-4.57 238.68-5.3L238.68-5.3 238.68-14.43Q238.68-17.82 238.04-19.09L238.04-19.09Q236.8-21.58 234.23-21.58Z" opacity="1" transform="matrix(1,0,0,1,0,0)" fill="#99775c" class="wordmark-text-0" data-fill-palette-color="quaternary" id="text-0"></path></svg></g></svg></g><g transform="matrix(1,0,0,1,0,113.80184026662761)"><svg viewBox="0 0 395.52 34.08120301033586" height="34.08120301033586" width="395.52"><g transform="matrix(1,0,0,1,0,0)"><svg width="395.52" viewBox="1.95 -31.74 476 41.019999999999996" height="34.08120301033586" data-palette-color="#4a90e2"><path d="M23.73-20.51L24.71-20.51 24.46-29.3 1.95-29.3 1.95-28.03 5.86-28.03 5.86-1.27 1.95-1.27 1.95 0 24.46 0 24.71-8.79 23.73-8.79 23.05-6.49Q21.83-2.34 19.43-1.51L19.43-1.51Q18.7-1.27 17.87-1.27L17.87-1.27 10.06-1.27 10.06-14.4 20.12-14.4 20.12-15.82 10.06-15.82 10.06-28.03 17.87-28.03Q21.39-28.03 22.9-23.29L22.9-23.29Q23-23 23.05-22.8L23.05-22.8 23.73-20.51ZM34.18 0L34.18 0 41.75 0 41.75-1.22 38.09-1.22 43.9-8.89 49.22-1.22 46.24-1.22 46.24 0 55.33 0Q55.33-1.07 54.59-1.17L54.59-1.17Q54.4-1.22 54.11-1.22L54.11-1.22 53.18-1.22 46.44-11.08 51.47-18.07Q52.4-19.38 53.91-19.58L53.91-19.58Q54.69-19.63 54.84-20.12L54.84-20.12Q54.89-20.36 54.89-20.75L54.89-20.75 47.56-20.75 47.56-19.53 50.98-19.53 45.71-12.21 40.68-19.53 43.9-19.53 43.9-20.75 34.14-20.75 34.14-19.53 36.53-19.53 43.12-10.01 37.5-2.69Q36.53-1.42 35.06-1.22L35.06-1.22Q34.33-1.12 34.23-0.63L34.23-0.63Q34.18-0.34 34.18 0ZM74.32 8.06L70.91 8.06 70.91-2.05Q73.59 0.29 77.11 0.49L77.11 0.49Q81.45 0.49 84.38-2.78L84.38-2.78Q87.22-5.96 87.22-10.84L87.22-10.84Q87.22-16.41 84.14-19.29L84.14-19.29Q81.99-21.24 78.91-21.24L78.91-21.24Q74.18-21.24 71.83-17.48L71.83-17.48Q71.25-16.5 70.86-15.43L70.86-15.43 70.61-20.75 63.58-20.75 63.58-19.53 67.24-19.53 67.24 5.13Q67.24 7.37 65.98 7.81L65.98 7.81Q65.24 8.06 63.58 8.06L63.58 8.06 63.58 9.28 75.55 9.28Q75.55 8.2 74.81 8.11L74.81 8.11Q74.62 8.06 74.32 8.06L74.32 8.06ZM77.35-19.29L77.35-19.29Q81.6-19.29 82.72-13.96L82.72-13.96Q83.07-12.35 83.07-10.35L83.07-10.35Q83.07-3.17 79.21-1.27L79.21-1.27Q78.08-0.73 76.77-0.73L76.77-0.73Q73.01-0.73 71.59-4.69L71.59-4.69Q70.86-6.69 70.86-9.42L70.86-9.42Q70.86-15.77 74.13-18.21L74.13-18.21Q75.59-19.29 77.35-19.29ZM107.73-1.22L107.73-1.22 105.09-1.22 105.09-31.74 97.77-31.74 97.77-30.52 101.43-30.52 101.43-4.15Q101.43-1.9 100.16-1.46L100.16-1.46Q99.43-1.22 97.77-1.22L97.77-1.22 97.77 0 108.95 0Q108.95-1.07 108.22-1.17L108.22-1.17Q108.02-1.22 107.73-1.22ZM123.36-10.4L123.36-10.4Q123.36-17.97 127.51-19.63L127.51-19.63Q128.58-20.02 129.75-20.02L129.75-20.02Q135.17-20.02 136.05-13.18L136.05-13.18Q136.2-12.01 136.2-10.6L136.2-10.6Q136.2-2.39 131.71-0.98L131.71-0.98Q130.83-0.73 129.9-0.73L129.9-0.73Q124.97-0.73 123.7-6.59L123.7-6.59Q123.36-8.3 123.36-10.4ZM129.9-21.24L129.9-21.24Q125.21-21.24 122.09-18.02L122.09-18.02Q119.21-15.04 119.21-10.6L119.21-10.6Q119.21-4.44 123.7-1.37L123.7-1.37Q126.43 0.49 129.75 0.49L129.75 0.49Q134.44 0.49 137.52-2.83L137.52-2.83Q140.35-5.86 140.35-10.4L140.35-10.4Q140.35-16.55 135.81-19.53L135.81-19.53Q133.12-21.24 129.9-21.24ZM161.69-1.22L161.69-1.22 158.18-1.22 158.18-10.94Q158.18-15.38 160.91-18.07L160.91-18.07Q161.98-19.09 162.72-19.14L162.72-19.14Q163.55-19.14 164.23-17.92L164.23-17.92Q165.01-16.55 165.7-16.36L165.7-16.36Q165.99-16.26 166.28-16.26L166.28-16.26Q167.75-16.26 168.14-17.68L168.14-17.68Q168.23-17.97 168.23-18.26L168.23-18.26Q168.23-20.46 165.99-20.95L165.99-20.95Q165.5-21.04 165.06-21.04L165.06-21.04Q162.13-21.04 159.84-18.55L159.84-18.55Q158.76-17.38 158.13-15.92L158.13-15.92 157.93-20.75 150.85-20.75 150.85-19.53 154.51-19.53 154.51-4.15Q154.51-1.9 153.24-1.46L153.24-1.46Q152.51-1.22 150.85-1.22L150.85-1.22 150.85 0 162.91 0Q162.91-1.07 162.18-1.17L162.18-1.17Q161.98-1.22 161.69-1.22ZM187.62-20.02L187.62-20.02Q191.04-20.02 192.16-17.14L192.16-17.14Q192.55-16.21 192.55-15.14L192.55-15.14Q192.55-12.7 190.21-12.16L190.21-12.16Q188.99-11.91 186.74-11.96L186.74-11.96 181.57-12.11Q181.81-17.72 185.23-19.43L185.23-19.43Q186.35-20.02 187.62-20.02ZM196.12-4.69L196.12-4.69 194.9-5.13Q193.19-1.42 189.38-0.93L189.38-0.93Q188.89-0.88 188.45-0.88L188.45-0.88Q183.33-0.88 182.01-6.98L182.01-6.98Q181.62-8.69 181.57-10.74L181.57-10.74 187.43-10.64Q193.38-10.55 195.09-11.77L195.09-11.77Q196.41-12.74 196.41-14.55L196.41-14.55Q196.41-17.87 193.04-19.82L193.04-19.82Q190.65-21.24 187.53-21.24L187.53-21.24Q181.42-21.24 178.79-16.16L178.79-16.16Q177.42-13.53 177.42-10.21L177.42-10.21Q177.42-4.15 181.76-1.22L181.76-1.22Q184.35 0.49 187.67 0.49L187.67 0.49Q192.95 0.49 195.44-3.32L195.44-3.32Q195.83-4 196.12-4.69ZM222.59-20.75L222.59-19.53 226.01-19.53 226.01-5.76Q226.35 0.34 231.63 0.54L231.63 0.54Q236.12 0.54 237.24-4.98L237.24-4.98Q237.24-5.03 237.24-5.08L237.24-5.08 235.92-5.32Q234.7-1.27 232.36-0.93L232.36-0.93Q229.72-1.03 229.67-4.69L229.67-4.69 229.67-19.53 237.24-19.53 237.24-20.75 229.67-20.75 229.67-26.42 226.01-25.39 226.01-20.75 222.59-20.75ZM255.8-1.22L255.8-1.22 253.36-1.22 253.36-11.77Q253.36-16.21 256.43-18.21L256.43-18.21Q257.7-19.04 259.07-19.04L259.07-19.04Q262.05-19.04 263.22-16.26L263.22-16.26Q263.76-14.94 263.76-13.33L263.76-13.33 263.76-4.15Q263.76-1.9 262.68-1.46L262.68-1.46Q262-1.22 260.34-1.22L260.34-1.22 260.34 0 271.08 0Q271.08-1.07 270.35-1.17L270.35-1.17Q270.16-1.22 269.86-1.22L269.86-1.22 267.42-1.22 267.42-13.33Q267.42-18.65 263.91-20.56L263.91-20.56Q262.54-21.24 260.98-21.24L260.98-21.24Q257.36-21.24 254.92-18.6L254.92-18.6Q253.9-17.48 253.36-16.06L253.36-16.06 253.36-31.74 246.03-31.74 246.03-30.52 249.7-30.52 249.7-4.15Q249.7-1.9 248.43-1.46L248.43-1.46Q247.69-1.22 246.03-1.22L246.03-1.22 246.03 0 257.02 0Q257.02-1.07 256.29-1.17L256.29-1.17Q256.09-1.22 255.8-1.22ZM291.5-20.02L291.5-20.02Q294.92-20.02 296.04-17.14L296.04-17.14Q296.43-16.21 296.43-15.14L296.43-15.14Q296.43-12.7 294.09-12.16L294.09-12.16Q292.86-11.91 290.62-11.96L290.62-11.96 285.44-12.11Q285.69-17.72 289.1-19.43L289.1-19.43Q290.23-20.02 291.5-20.02ZM299.99-4.69L299.99-4.69 298.77-5.13Q297.06-1.42 293.26-0.93L293.26-0.93Q292.77-0.88 292.33-0.88L292.33-0.88Q287.2-0.88 285.88-6.98L285.88-6.98Q285.49-8.69 285.44-10.74L285.44-10.74 291.3-10.64Q297.26-10.55 298.97-11.77L298.97-11.77Q300.29-12.74 300.29-14.55L300.29-14.55Q300.29-17.87 296.92-19.82L296.92-19.82Q294.52-21.24 291.4-21.24L291.4-21.24Q285.3-21.24 282.66-16.16L282.66-16.16Q281.29-13.53 281.29-10.21L281.29-10.21Q281.29-4.15 285.64-1.22L285.64-1.22Q288.23 0.49 291.55 0.49L291.55 0.49Q296.82 0.49 299.31-3.32L299.31-3.32Q299.7-4 299.99-4.69ZM353.57 0L353.96 0 363.63-28.03 366.07-28.03 366.07-29.3 358.16-29.3 358.16-28.03 362.06-28.03 354.4-4.98 346.54-28.03 350.49-28.03 350.49-29.3 342.09-29.3 345.41-19.92 340.29-5.08 332.03-28.03 335.99-28.03 335.99-29.3 325.25-29.3 325.25-28.03 328.13-28.03 337.11-2.93Q338.09-0.15 338.87 0.15L338.87 0.15Q339.16 0.24 339.46 0.24L339.46 0.24 339.85 0.24 346.19-17.68 351.42-2.93Q352.3-0.44 352.83-0.15L352.83-0.15Q353.13 0 353.57 0L353.57 0ZM379.16-10.4L379.16-10.4Q379.16-17.97 383.31-19.63L383.31-19.63Q384.38-20.02 385.55-20.02L385.55-20.02Q390.97-20.02 391.85-13.18L391.85-13.18Q392-12.01 392-10.6L392-10.6Q392-2.39 387.51-0.98L387.51-0.98Q386.63-0.73 385.7-0.73L385.7-0.73Q380.77-0.73 379.5-6.59L379.5-6.59Q379.16-8.3 379.16-10.4ZM385.7-21.24L385.7-21.24Q381.01-21.24 377.89-18.02L377.89-18.02Q375.01-15.04 375.01-10.6L375.01-10.6Q375.01-4.44 379.5-1.37L379.5-1.37Q382.23 0.49 385.55 0.49L385.55 0.49Q390.24 0.49 393.32-2.83L393.32-2.83Q396.15-5.86 396.15-10.4L396.15-10.4Q396.15-16.55 391.61-19.53L391.61-19.53Q388.92-21.24 385.7-21.24ZM417.49-1.22L417.49-1.22 413.98-1.22 413.98-10.94Q413.98-15.38 416.71-18.07L416.71-18.07Q417.78-19.09 418.52-19.14L418.52-19.14Q419.35-19.14 420.03-17.92L420.03-17.92Q420.81-16.55 421.49-16.36L421.49-16.36Q421.79-16.26 422.08-16.26L422.08-16.26Q423.55-16.26 423.94-17.68L423.94-17.68Q424.03-17.97 424.03-18.26L424.03-18.26Q424.03-20.46 421.79-20.95L421.79-20.95Q421.3-21.04 420.86-21.04L420.86-21.04Q417.93-21.04 415.64-18.55L415.64-18.55Q414.56-17.38 413.93-15.92L413.93-15.92 413.73-20.75 406.65-20.75 406.65-19.53 410.31-19.53 410.31-4.15Q410.31-1.9 409.04-1.46L409.04-1.46Q408.31-1.22 406.65-1.22L406.65-1.22 406.65 0 418.71 0Q418.71-1.07 417.98-1.17L417.98-1.17Q417.78-1.22 417.49-1.22ZM442.84-1.22L442.84-1.22 440.2-1.22 440.2-31.74 432.88-31.74 432.88-30.52 436.54-30.52 436.54-4.15Q436.54-1.9 435.27-1.46L435.27-1.46Q434.54-1.22 432.88-1.22L432.88-1.22 432.88 0 444.06 0Q444.06-1.07 443.33-1.17L443.33-1.17Q443.13-1.22 442.84-1.22ZM470.58-5.18L470.97 0 477.95 0Q477.95-1.07 477.22-1.17L477.22-1.17Q477.02-1.22 476.73-1.22L476.73-1.22 474.29-1.22 474.19-31.74 465.89-31.74 465.89-30.52 470.53-30.52 470.53-18.6Q468.13-21.24 464.08-21.24L464.08-21.24Q458.71-21.24 455.98-16.46L455.98-16.46Q454.32-13.53 454.32-9.86L454.32-9.86Q454.32-3.81 458.12-1.03L458.12-1.03Q460.27 0.49 462.86 0.49L462.86 0.49Q468.18 0.39 470.58-5.18L470.58-5.18ZM458.47-10.45L458.47-10.45Q458.47-17.33 462.18-19.38L462.18-19.38Q463.35-20.02 464.77-20.02L464.77-20.02Q468.33-20.02 469.84-16.21L469.84-16.21Q470.67-14.16 470.67-11.38L470.67-11.38Q470.67-5.52 467.74-2.88L467.74-2.88Q466.18-1.46 464.18-1.46L464.18-1.46Q460.18-1.46 458.95-6.35L458.95-6.35Q458.47-8.15 458.47-10.45Z" opacity="1" transform="matrix(1,0,0,1,0,0)" fill="#4a90e2" class="slogan-text-1" data-fill-palette-color="secondary" id="text-1"></path></svg></g></svg></g></svg></g></svg></g></svg></g><defs></defs></svg><rect width="395.52" height="147.88304327696346" fill="none" stroke="none" visibility="hidden"></rect></g></svg></g></svg>